<svg xmlns="http://www.w3.org/2000/svg" width="1em" height="1em" preserveAspectRatio="xMidYMid meet" viewBox="0 0 24 24"><path d="M12 2C6.48 2 2 6.48 2 12s4.48 10 10 10 10-4.48 10-10S17.52 2 12 2zm0 18c-4.4 0-8-3.6-8-8s3.6-8 8-8 8 3.6 8 8-3.6 8-8 8zm.3-8.86c-1.77-.45-2.34-.94-2.34-1.67 0-.84.8-1.43 2.1-1.43 1.38 0 1.9.66 1.94 1.64h1.7c-.05-1.34-.87-2.57-2.5-2.97V5H10.9v1.7C9.4 7 8.18 8 8.18 9.5c0 1.8 1.5 2.7 3.66 3.2 1.95.46 2.34 1.15 2.34 1.87 0 .53-.4 1.4-2.1 1.4-1.6 0-2.23-.72-2.32-1.64H8.04c.1 1.7 1.36 2.66 2.86 2.97V19h2.34v-1.67c1.52-.3 2.72-1.16 2.73-2.77-.01-2.2-1.9-2.96-3.66-3.42z" fill="#fff"/></svg>