<svg xmlns="http://www.w3.org/2000/svg" width="1em" height="1em" preserveAspectRatio="xMidYMid meet" viewBox="0 0 256 256"><path d="M241.87 256c7.802 0 14.13-6.326 14.13-14.13V14.13C256 6.325 249.673 0 241.87 0H14.13A14.13 14.13 0 0 0 0 14.129v227.743a14.13 14.13 0 0 0 14.129 14.129H241.87" fill="#395185"/><path d="M176.635 256v-99.137h33.277l4.982-38.635h-38.26V93.56c0-11.186 3.107-18.81 19.148-18.81l20.46-.01V40.188c-3.54-.47-15.684-1.523-29.812-1.523-29.498 0-49.692 18.005-49.692 51.07v28.493h-33.362v38.635h33.362V256h39.897" fill="#fff"/></svg>