<svg xmlns="http://www.w3.org/2000/svg" width="1em" height="1em" preserveAspectRatio="xMidYMid meet" viewBox="0 0 24 24"><path d="M19 3c-1.654 0-3 1.346-3 3 0 .502.136.968.354 1.385l-1.116 1.302A3.976 3.976 0 0 0 13 8c-.74 0-1.425.216-2.02.566L9.566 7.152A3.449 3.449 0 0 0 10 5.5C10 3.57 8.43 2 6.5 2S3 3.57 3 5.5 4.57 9 6.5 9c.6 0 1.158-.166 1.652-.434L9.566 9.98A3.972 3.972 0 0 0 9 12c0 .997.38 1.9.985 2.6l-1.692 1.692.025.025A2.962 2.962 0 0 0 7 16c-1.654 0-3 1.346-3 3s1.346 3 3 3 3-1.346 3-3c0-.476-.12-.92-.318-1.318l.025.025 1.954-1.954A3.97 3.97 0 0 0 13 16c2.206 0 4-1.794 4-4a3.96 3.96 0 0 0-.439-1.785l1.253-1.462A2.97 2.97 0 0 0 19 9c1.654 0 3-1.346 3-3s-1.346-3-3-3zM7 20a1 1 0 1 1 0-2 1 1 0 0 1 0 2zM5 5.5a1.5 1.5 0 1 1 3 0 1.5 1.5 0 1 1-3 0zm8 8.5c-1.103 0-2-.897-2-2s.897-2 2-2 2 .897 2 2-.897 2-2 2zm6-7a1 1 0 1 1 0-2 1 1 0 0 1 0 2z" fill="#fff"/></svg>